<svg xmlns="http://www.w3.org/2000/svg" viewBox="0 0 1600 900" preserveAspectRatio="xMidYMid slice">
  <defs>
    <linearGradient id="bg" x1="0" x2="1" y1="0" y2="1"><stop offset="0" stop-color="#070707"/><stop offset=".55" stop-color="#1d1711"/><stop offset="1" stop-color="#0d1720"/></linearGradient>
    <radialGradient id="warm" cx=".2" cy=".3" r=".6"><stop offset="0" stop-color="#e8541e" stop-opacity=".45"/><stop offset="1" stop-color="#000" stop-opacity="0"/></radialGradient>
    <radialGradient id="blue" cx=".83" cy=".48" r=".55"><stop offset="0" stop-color="#0066cc" stop-opacity=".36"/><stop offset="1" stop-color="#000" stop-opacity="0"/></radialGradient>
  </defs>
  <rect width="1600" height="900" fill="url(#bg)"/>
  <rect width="1600" height="900" fill="url(#warm)"/>
  <rect width="1600" height="900" fill="url(#blue)"/>
  <g opacity=".16" stroke="#fff" stroke-width="2">
    <path d="M150 215h360M150 285h290M150 355h410M150 425h330M1030 235h360M1030 305h280M1030 375h410M1030 445h320"/>
  </g>
  <g fill="none" stroke="#e8541e" stroke-width="5" opacity=".48">
    <path d="M220 635c180-150 365-170 555-60s375 92 605-55"/>
    <path d="M260 715c220-110 390-116 570-18s335 96 510 8"/>
  </g>
  <path d="M800 150c82 70 164 98 250 108v220c0 170-105 285-250 355-145-70-250-185-250-355V258c86-10 168-38 250-108z" fill="#fbfaf7" opacity=".11"/>
  <path d="M707 476l68 70 137-175" fill="none" stroke="#fbfaf7" stroke-width="32" stroke-linecap="round" stroke-linejoin="round" opacity=".72"/>
  <g fill="#fbfaf7" opacity=".08">
    <rect x="120" y="120" width="360" height="480" rx="26"/><rect x="1120" y="140" width="310" height="430" rx="26"/>
  </g>
</svg>
